<svg xmlns="http://www.w3.org/2000/svg" width="192" height="192" viewBox="0 0 192 192">
  <defs>
    <linearGradient id="bg" x1="0" y1="0" x2="1" y2="1">
      <stop offset="0%" stop-color="#1e3a6a"/>
      <stop offset="100%" stop-color="#0f1d3a"/>
    </linearGradient>
  </defs>
  <rect width="192" height="192" rx="32" fill="url(#bg)"/>
  <g transform="translate(36,20)" fill="none">
    <!-- Building icon -->
    <rect x="20" y="40" width="80" height="90" rx="4" fill="#3b82f6" opacity="0.15" stroke="#3b82f6" stroke-width="3"/>
    <rect x="35" y="55" width="12" height="15" rx="1" fill="#3b82f6" opacity="0.6"/>
    <rect x="55" y="55" width="12" height="15" rx="1" fill="#3b82f6" opacity="0.6"/>
    <rect x="35" y="80" width="12" height="15" rx="1" fill="#3b82f6" opacity="0.6"/>
    <rect x="55" y="80" width="12" height="15" rx="1" fill="#3b82f6" opacity="0.6"/>
    <rect x="35" y="105" width="12" height="25" rx="1" fill="#3b82f6" opacity="0.6"/>
    <rect x="55" y="105" width="12" height="25" rx="1" fill="#3b82f6" opacity="0.6"/>
    <!-- Roof -->
    <polygon points="12,42 60,8 108,42" fill="none" stroke="#3b82f6" stroke-width="3" stroke-linejoin="round"/>
    <line x1="60" y1="8" x2="60" y2="22" stroke="#3b82f6" stroke-width="3" stroke-linecap="round"/>
  </g>
  <text x="96" y="162" font-family="Inter,system-ui,sans-serif" font-size="32" font-weight="800" fill="#f8fafc" text-anchor="middle">WM</text>
  <text x="96" y="180" font-family="Inter,system-ui,sans-serif" font-size="14" font-weight="600" fill="#c49a2a" text-anchor="middle" letter-spacing="2">MYS</text>
</svg>